<svg xmlns="http://www.w3.org/2000/svg" xmlns:xlink="http://www.w3.org/1999/xlink" width="278" height="48" version="1.1"><rect id="backgroundrect" width="100%" height="100%" x="0" y="0" fill="none" stroke="none"/>
<defs>
<linearGradient id="linear0" gradientUnits="userSpaceOnUse" x1="0" y1="1" x2="0" y2="0" gradientTransform="matrix(1668,0,0,60,0,0)">
<stop offset="0" style="stop-color:rgb(23.137255%,50.980392%,96.470588%);stop-opacity:1;"/>
<stop offset="1" style="stop-color:rgb(37.647059%,64.705882%,98.039216%);stop-opacity:1;"/>
</linearGradient>
<filter id="alpha" filterUnits="objectBoundingBox" x="0%" y="0%" width="100%" height="100%">
  <feColorMatrix type="matrix" in="SourceGraphic" values="0 0 0 0 1 0 0 0 0 1 0 0 0 0 1 0 0 0 1 0"/>
</filter>
<mask id="mask0">
  <g filter="url(#alpha)" id="svg_1">
<rect x="0" y="0" width="278" height="60" style="fill:rgb(0%,0%,0%);fill-opacity:0.901961;stroke:none;" id="svg_2"/>
  </g>
</mask>
<linearGradient id="linear1" gradientUnits="userSpaceOnUse" x1="0" y1="1" x2="0" y2="0" gradientTransform="matrix(1668,0,0,60,0,0)">
<stop offset="0" style="stop-color:rgb(95.294118%,41.568627%,24.313725%);stop-opacity:1;"/>
<stop offset="1" style="stop-color:rgb(100%,70.196078%,4.313725%);stop-opacity:1;"/>
</linearGradient>
<clipPath id="clip1">
  <rect x="0" y="0" width="278" height="60" id="svg_3"/>
</clipPath>
<g id="surface5" clip-path="url(#clip1)">
<path style=" stroke:none;fill-rule:nonzero;fill:url(#linear1);" d="M 0 54 L 11.582031 49.007812 C 23.167969 43.933594 46.332031 34.066406 69.5 28.992188 C 92.667969 24 115.832031 24 139 22.992188 C 162.167969 22.066406 185.332031 19.933594 208.5 16.992188 C 231.667969 13.933594 254.832031 10.066406 278 7.992188 C 301.167969 6 324.332031 6 347.5 10.007812 C 370.667969 13.933594 393.832031 22.066406 417 27 C 440.167969 31.933594 463.332031 34.066406 486.5 28.992188 C 509.667969 24 532.832031 12 556 7.992188 C 579.167969 4.066406 602.332031 7.933594 625.5 10.007812 C 648.667969 12 671.832031 12 695 13.007812 C 718.167969 13.933594 741.332031 16.066406 764.5 15 C 787.667969 13.933594 810.832031 10.066406 834 10.992188 C 857.167969 12 880.332031 18 903.5 22.007812 C 926.667969 25.933594 949.832031 28.066406 973 25.992188 C 996.167969 24 1019.332031 18 1042.5 16.992188 C 1065.667969 16.066406 1088.832031 19.933594 1112 21 C 1135.167969 22.066406 1158.332031 19.933594 1181.5 21 C 1204.667969 22.066406 1227.832031 25.933594 1251 31.007812 C 1274.167969 36 1297.332031 42 1320.5 43.007812 C 1343.667969 43.933594 1366.832031 40.066406 1390 34.992188 C 1413.167969 30 1436.332031 24 1459.5 25.007812 C 1482.667969 25.933594 1505.832031 34.066406 1529 40.007812 C 1552.167969 46.066406 1575.332031 49.933594 1598.5 43.007812 C 1621.667969 36 1644.832031 18 1656.417969 9 L 1668 0 L 1668 60 L 1656.417969 60 C 1644.832031 60 1621.667969 60 1598.5 60 C 1575.332031 60 1552.167969 60 1529 60 C 1505.832031 60 1482.667969 60 1459.5 60 C 1436.332031 60 1413.167969 60 1390 60 C 1366.832031 60 1343.667969 60 1320.5 60 C 1297.332031 60 1274.167969 60 1251 60 C 1227.832031 60 1204.667969 60 1181.5 60 C 1158.332031 60 1135.167969 60 1112 60 C 1088.832031 60 1065.667969 60 1042.5 60 C 1019.332031 60 996.167969 60 973 60 C 949.832031 60 926.667969 60 903.5 60 C 880.332031 60 857.167969 60 834 60 C 810.832031 60 787.667969 60 764.5 60 C 741.332031 60 718.167969 60 695 60 C 671.832031 60 648.667969 60 625.5 60 C 602.332031 60 579.167969 60 556 60 C 532.832031 60 509.667969 60 486.5 60 C 463.332031 60 440.167969 60 417 60 C 393.832031 60 370.667969 60 347.5 60 C 324.332031 60 301.167969 60 278 60 C 254.832031 60 231.667969 60 208.5 60 C 185.332031 60 162.167969 60 139 60 C 115.832031 60 92.667969 60 69.5 60 C 46.332031 60 23.167969 60 11.582031 60 L 0 60 Z M 0 54 " id="svg_4"/>
</g>
</defs>

<g class="currentLayer" style=""><title>Layer 1</title><g id="surface1" class="" opacity="0.67">
<path style=" stroke:none;fill-rule:nonzero;fill:url(#linear0);" d="M 0 12 L 11.582031 16.007812 C 23.167969 19.933594 46.332031 28.066406 69.5 27 C 92.667969 25.933594 115.832031 16.066406 139 18 C 162.167969 19.933594 185.332031 34.066406 208.5 33 C 231.667969 31.933594 254.832031 16.066406 278 7.992188 C 301.167969 0 324.332031 0 347.5 0 C 370.667969 0 393.832031 0 417 7.007812 C 440.167969 13.933594 463.332031 28.066406 486.5 28.992188 C 509.667969 30 532.832031 18 556 19.992188 C 579.167969 22.066406 602.332031 37.933594 625.5 43.992188 C 648.667969 49.933594 671.832031 46.066406 695 43.992188 C 718.167969 42 741.332031 42 764.5 42 C 787.667969 42 810.832031 42 834 40.007812 C 857.167969 37.933594 880.332031 34.066406 903.5 31.007812 C 926.667969 28.066406 949.832031 25.933594 973 28.992188 C 996.167969 31.933594 1019.332031 40.066406 1042.5 45 C 1065.667969 49.933594 1088.832031 52.066406 1112 45 C 1135.167969 37.933594 1158.332031 22.066406 1181.5 18 C 1204.667969 13.933594 1227.832031 22.066406 1251 24 C 1274.167969 25.933594 1297.332031 22.066406 1320.5 18 C 1343.667969 13.933594 1366.832031 10.066406 1390 9 C 1413.167969 7.933594 1436.332031 10.066406 1459.5 12 C 1482.667969 13.933594 1505.832031 16.066406 1529 13.992188 C 1552.167969 12 1575.332031 6 1598.5 12 C 1621.667969 18 1644.832031 36 1656.417969 45 L 1668 54 L 1668 60 L 1656.417969 60 C 1644.832031 60 1621.667969 60 1598.5 60 C 1575.332031 60 1552.167969 60 1529 60 C 1505.832031 60 1482.667969 60 1459.5 60 C 1436.332031 60 1413.167969 60 1390 60 C 1366.832031 60 1343.667969 60 1320.5 60 C 1297.332031 60 1274.167969 60 1251 60 C 1227.832031 60 1204.667969 60 1181.5 60 C 1158.332031 60 1135.167969 60 1112 60 C 1088.832031 60 1065.667969 60 1042.5 60 C 1019.332031 60 996.167969 60 973 60 C 949.832031 60 926.667969 60 903.5 60 C 880.332031 60 857.167969 60 834 60 C 810.832031 60 787.667969 60 764.5 60 C 741.332031 60 718.167969 60 695 60 C 671.832031 60 648.667969 60 625.5 60 C 602.332031 60 579.167969 60 556 60 C 532.832031 60 509.667969 60 486.5 60 C 463.332031 60 440.167969 60 417 60 C 393.832031 60 370.667969 60 347.5 60 C 324.332031 60 301.167969 60 278 60 C 254.832031 60 231.667969 60 208.5 60 C 185.332031 60 162.167969 60 139 60 C 115.832031 60 92.667969 60 69.5 60 C 46.332031 60 23.167969 60 11.582031 60 L 0 60 Z M 0 12 " id="svg_5" opacity="0.67"/>
<use xlink:href="#surface5" mask="url(#mask0)" id="svg_6"/>
</g></g></svg>